<?xml version="1.0" encoding="UTF-8" standalone="no"?>
<!DOCTYPE svg PUBLIC "-//W3C//DTD SVG 1.1//EN" "http://www.w3.org/Graphics/SVG/1.1/DTD/svg11.dtd">
<svg width="100%" height="100%" viewBox="0 0 100 100" version="1.1" xmlns="http://www.w3.org/2000/svg" xmlns:xlink="http://www.w3.org/1999/xlink" xml:space="preserve" xmlns:serif="http://www.serif.com/" style="fill-rule:evenodd;clip-rule:evenodd;stroke-linejoin:round;stroke-miterlimit:2;">
    <g id="contract" transform="matrix(0.241389,0,0,0.240764,50.289475,49.757492)">
        <g transform="matrix(1,0,0,1,-208.333333,-208.333333)">
            <g transform="matrix(0.416667,0,0,0.416667,0,0)">
                <path d="M746,336L614,204C611.403,201.285 607.753,199.825 604,200C596.683,199.981 590.523,205.702 590,213L590,320C590,341.943 608.057,360 630,360L736,360C743.317,360.019 749.477,354.298 750,347L750,346C750.175,342.247 748.715,338.597 746,336ZM730,420L590,420C557.085,420 530,392.915 530,360L530,220C530,209.028 520.972,200 510,200L310,200C277.085,200 250,227.085 250,260L250,740C250,772.915 277.085,800 310,800L690,800C722.915,800 750,772.915 750,740L750,440C750,429.028 740.972,420 730,420ZM310,414L310,413L314,398C314.445,395.082 316.98,392.904 319.931,392.904C320.29,392.904 320.647,392.936 321,393L341,393L349,360L332,360C331.669,360.056 331.335,360.084 330.999,360.084C327.708,360.084 324.999,357.376 324.999,354.084C324.999,354.056 325,354.028 325,354L325,352L330,336C330.491,333.094 333.053,330.959 336,331L357,331L365,298C365.445,295.082 367.98,292.904 370.931,292.904C371.29,292.904 371.647,292.936 372,293L388,293C391.292,293 394,295.708 394,299L394,302L386,332L421,332L429,298C429.491,295.094 432.053,292.959 435,293L452,293C452.363,292.932 452.732,292.898 453.102,292.898C456.394,292.898 459.102,295.606 459.102,298.898C459.102,299.268 459.068,299.637 459,300L459,301L451,331L467,331C468.831,331.141 470.577,331.839 472,333L473,334L473,337L469,353C468.509,355.906 465.947,358.041 463,358L443,358L434,391L451,391C451.028,391 451.056,390.999 451.084,390.999C454.376,390.999 457.084,393.708 457.084,396.999C457.084,397.335 457.056,397.669 457,398L457,400L453,416C452.509,418.906 449.947,421.041 447,421L427,421L419,454C418.555,456.918 416.02,459.096 413.069,459.096C412.71,459.096 412.353,459.064 412,459L396,460C395.637,460.068 395.268,460.102 394.898,460.102C391.606,460.102 388.898,457.394 388.898,454.102C388.898,453.732 388.932,453.363 389,453L389,452L397,422L363,422L354,455C353.509,457.906 350.947,460.041 348,460L331,460C327.708,460 325,457.292 325,454L325,452L333,421L316,421C315.972,421 315.944,421.001 315.916,421.001C312.624,421.001 309.916,418.292 309.916,415.001C309.916,414.665 309.944,414.331 310,414ZM610,690C610,700.972 600.972,710 590,710L330,710C319.028,710 310,700.972 310,690L310,670C310,659.028 319.028,650 330,650L590,650C600.972,650 610,659.028 610,670L610,690ZM650,570C650,580.972 640.972,590 630,590L330,590C319.028,590 310,580.972 310,570L310,550C310,539.028 319.028,530 330,530L630,530C640.972,530 650,539.028 650,550L650,570ZM413,360L379,360L371,393L405,393L413,360Z" style="fill:white;fill-rule:nonzero;"/>
            </g>
        </g>
    </g>
</svg>
