<?xml version="1.0" encoding="UTF-8" standalone="no"?>
<!DOCTYPE svg PUBLIC "-//W3C//DTD SVG 1.1//EN" "http://www.w3.org/Graphics/SVG/1.1/DTD/svg11.dtd">
<svg width="100%" height="100%" viewBox="0 0 100 100" version="1.1" xmlns="http://www.w3.org/2000/svg" xmlns:xlink="http://www.w3.org/1999/xlink" xml:space="preserve" xmlns:serif="http://www.serif.com/" style="fill-rule:evenodd;clip-rule:evenodd;stroke-linejoin:round;stroke-miterlimit:2;">
    <g id="contract_amendment" transform="matrix(0.241389,0,0,0.240764,50.58205,49.840868)">
        <g transform="matrix(1,0,0,1,-208.333333,-208.333333)">
            <g transform="matrix(0.416667,0,0,0.416667,0,0)">
                <path d="M298,626L298,316C266.182,316 240,342.182 240,374L240,742C240,773.818 266.182,800 298,800L588,800C619.818,800 646,773.818 646,742L414,742C351,742 298,742 298,626ZM663,329L748,329C748.333,329.03 748.666,329.046 749,329.046C755.035,329.046 760,324.08 760,318.046C760,318.03 760,318.015 760,318C760.247,315.021 759.145,312.082 757,310L650,203C647.918,200.855 644.979,199.753 642,200C641.667,199.97 641.334,199.954 641,199.954C634.965,199.954 630,204.92 630,210.954C630,210.97 630,210.985 630,211L630,297C630,297.005 630,297.01 630,297.016C630,314.57 644.445,329.016 662,329.016C662.333,329.016 662.667,329.01 663,329ZM488,329L460,329L453,355L481,355L488,329ZM744,377L631,377C604.493,377.006 582.541,355.501 582,329L582,216C582,207.223 574.777,200 566,200L405,200C378.493,199.994 356.541,221.499 356,248L356,636C356.541,662.501 378.493,684.006 405,684L711,684C737.881,684 760,661.881 760,635L760,395C760.021,394.667 760.031,394.334 760.031,394C760.031,385.223 752.809,378 744.031,378C744.021,378 744.01,378 744,378L744,377ZM405,374L405,372L408,359C408.849,357.036 410.868,355.825 413,356L429,356L436,329L422,329C419.257,329 417,326.743 417,324L417,323L421,310C421.48,307.644 423.596,305.952 426,306L442,306L449,280C449.48,277.644 451.596,275.952 454,276L468,276C470.743,276 473,278.257 473,281L473,282L466,307L494,307L501,280C501.755,277.818 503.706,276.258 506,276L519,276C519.329,275.933 519.665,275.899 520.001,275.899C522.744,275.899 525.001,278.156 525.001,280.899C525.001,280.933 525.001,280.966 525,281L525,282L518,307L531,307C532.398,306.978 533.777,307.323 535,308L537,309L537,312L533,324C532.52,326.356 530.404,328.048 528,328L512,329L505,355L519,355C521.743,355 524,357.257 524,360L524,361L520,374C519.52,376.356 517.404,378.048 515,378L499,378L492,405C491.52,407.356 489.404,409.048 487,409L474,409C471.257,409 469,406.743 469,404L469,403L475,379L448,379L441,406C440.52,408.356 438.404,410.048 436,410L421,410C418.257,410 416,407.743 416,405L416,403L423,379L410,379C407.257,379 405,376.743 405,374ZM647,595C647,603.777 639.777,611 631,611L421,611C420.667,611.021 420.334,611.031 420,611.031C411.223,611.031 404,603.809 404,595.031C404,595.021 404,595.01 404,595L404,579C404,578.99 404,578.979 404,578.969C404,570.191 411.223,562.969 420,562.969C420.334,562.969 420.667,562.979 421,563L631,563C639.777,563 647,570.223 647,579L647,595ZM679,498C679.021,498.333 679.031,498.666 679.031,499C679.031,507.777 671.809,515 663.031,515C663.021,515 663.01,515 663,515L421,515C420.99,515 420.979,515 420.969,515C412.191,515 404.969,507.777 404.969,499C404.969,498.666 404.979,498.333 405,498L405,482C405,473.223 412.223,466 421,466L663,466C671.777,466 679,473.223 679,482L679,498Z" style="fill:white;fill-rule:nonzero;"/>
            </g>
        </g>
    </g>
</svg>
