<?xml version="1.0" encoding="UTF-8" standalone="no"?>
<!DOCTYPE svg PUBLIC "-//W3C//DTD SVG 1.1//EN" "http://www.w3.org/Graphics/SVG/1.1/DTD/svg11.dtd">
<svg width="100%" height="100%" viewBox="0 0 100 100" version="1.1" xmlns="http://www.w3.org/2000/svg" xmlns:xlink="http://www.w3.org/1999/xlink" xml:space="preserve" xmlns:serif="http://www.serif.com/" style="fill-rule:evenodd;clip-rule:evenodd;stroke-linejoin:round;stroke-miterlimit:2;">
    <g id="credit_memo_application" transform="matrix(0.243577,0,0,0.243577,49.254791,50.691649)">
        <g transform="matrix(1,0,0,1,-208.333333,-208.333333)">
            <g transform="matrix(0.416667,0,0,0.416667,0,0)">
                <path d="M219,200L781,200C786,200 791,202 794,206C797,210 800,214 800,219L800,281C800,291.423 791.423,300 781,300L219,300C214,300 209,298 206,294C203,290 200,286 200,281L200,219C200,214 202,209 206,206C210,203 214,200 219,200ZM219,350L401,351C406,351 411,353 414,357C418,360 420,365 420,370L420,407C420,412 418,417 414,421C410,425 406,426 401,426L219,425C214,425 209,423 206,419C202,416 200,411 200,406L200,369C200,364 202,359 206,356C210,353 214,350 219,350ZM505,350L781,350C786,350 791,352 794,356C797,360 800,364 800,369L800,406C800,416.423 791.423,425 781,425L505,425C500,425 496,423 492,419C488,415 487,411 487,406L487,369C487,364 489,359 492,356C495,353 500,350 505,350ZM219,475L399,475C404,475 409,477 412,481C416,484 418,489 418,494L418,531C418,536 416,541 412,544C409,548 404,550 399,550L219,550C214,550 209,548 206,544C202,541 200,536 200,531L200,494C200,489 202,484 206,481C210,478 214,475 219,475ZM219,600L399,600C404,600 409,602 412,606C416,609 418,614 418,619L418,656C418,661 416,666 412,669C409,673 404,675 399,675L219,675C214,675 209,673 206,669C203,665 200,661 200,656L200,619C200,614 202,609 206,606C210,603 214,600 219,600ZM219,725L399,725C404,725 409,727 412,731C416,734 418,739 418,744L418,781C418,786 416,791 412,794C409,798 404,800 399,800L219,800C214,800 209,798 206,794C203,790 200,786 200,781L200,744C200,739 202,734 206,731C210,728 214,725 219,725ZM583,574C579,574 575,575 572,577C568,580 565,583 564,587L562,599C563,603 565,607 568,610C571,613 575,615 579,616C583,617 588,616 592,615C600.049,611.688 605.24,603.7 605,595L603,587L599,580L592,575L584,573L583,573L583,574ZM686,653C681,653 677,654 674,657C666.755,661.756 663.166,670.53 665,679C666,683 668,687 671,690C674,693 678,695 682,696C686,697 690,696 694,694L704,687C707,684 707,679 707,675C708,672 707,669 706,666L701,659L694,655L686,653ZM774,592L792,613C797,620 800,628 800,636C800,644 797,653 791,659L777,676C769,685 764,696 763,708L761,730C760,739 757,747 751,753C745,759 737,762 728,763L701,765C692,765 684,769 678,774L657,792C643.48,802.744 624.04,802.322 611,791L592,776C584,768 574,764 564,763L539,761C531,760 523,757 517,751C511,745 508,737 507,728L505,702C505,693 501,684 496,677L479,657C467.97,643.719 467.97,624.281 479,611L494,592C502,584 506,574 507,563L509,540C509,532 513,524 519,518C525,512 533,508 542,508L567,506C577,505 586,501 593,495L613,479C626.281,467.97 645.719,467.97 659,479L677,495C686,502 696,506 706,507L730,509C739,510 747,513 753,519C759,525 762,533 763,542L765,570C765,578 768,586 774,592ZM550,573C546,579 543,587 544,595C543.994,595.283 543.991,595.566 543.991,595.849C543.991,617.792 562.048,635.849 583.991,635.849C605.934,635.849 623.991,617.792 623.991,595.849C623.991,592.871 623.659,589.903 623,587C621,579 617,572 612,566C600.498,554.381 582.856,551.174 568,558C561,561 555,566 550,573ZM600,714L601,713L684,559L685,557L683,555L671,555L669,556L668,557L584,710L584,713L586,714L600,714ZM719,697C724,690 726,683 726,675C726.003,674.796 726.005,674.592 726.005,674.388C726.005,652.445 707.948,634.388 686.005,634.388C664.061,634.388 646.005,652.445 646.005,674.388C646.005,696.331 664.061,714.388 686.005,714.388C699.186,714.388 711.549,707.873 719,697Z" style="fill:white;fill-rule:nonzero;"/>
            </g>
        </g>
    </g>
</svg>
