<?xml version="1.0" encoding="UTF-8" standalone="no"?>
<!DOCTYPE svg PUBLIC "-//W3C//DTD SVG 1.1//EN" "http://www.w3.org/Graphics/SVG/1.1/DTD/svg11.dtd">
<svg width="100%" height="100%" viewBox="0 0 100 100" version="1.1" xmlns="http://www.w3.org/2000/svg" xmlns:xlink="http://www.w3.org/1999/xlink" xml:space="preserve" xmlns:serif="http://www.serif.com/" style="fill-rule:evenodd;clip-rule:evenodd;stroke-linejoin:round;stroke-miterlimit:2;">
    <g id="credit_memo" transform="matrix(0.24,0,0,0.24,50,50)">
        <g transform="matrix(1,0,0,1,-208.333333,-208.333333)">
            <g transform="matrix(0.416667,0,0,0.416667,0,0)">
                <path d="M538,603C537.375,604.104 536.26,604.848 535,605L519,605C516.988,604.772 515.449,603.051 515.449,601.025C515.449,600.313 515.639,599.614 516,599L626,397C626.625,395.896 627.74,395.152 629,395L646,395C647.484,396.206 647.906,398.316 647,400L538,603ZM649,529C661.069,529 671,538.931 671,551C671,563.069 661.069,573 649,573C636.931,573 627,563.069 627,551C627,538.931 636.931,529 649,529M649,500C648.67,499.994 648.34,499.991 648.009,499.991C619.483,499.991 596.009,523.464 596.009,551.991C596.009,580.517 619.483,603.991 648.009,603.991C676.536,603.991 700.009,580.517 700.009,551.991C700.009,551.66 700.006,551.33 700,551C700,523.022 676.978,500 649,500ZM789,471L765,443C757.917,434.529 753.713,424.019 753,413L751,377C749.597,353.791 731.171,334.936 708,333L676,331C661.969,329.794 648.668,324.194 638,315L614,294C596.504,279.077 570.496,279.077 553,294L527,316C517.449,324.168 505.533,329.074 493,330L459,332C436.173,333.873 417.873,352.173 416,375L413,406C411.725,418.752 406.871,430.887 399,441L399,487L419,463C432.248,447.538 440.297,428.29 442,408L445,377C445.96,368.802 452.758,362.43 461,362L495,359C513.677,357.861 531.528,350.861 546,339L572,317C574.93,314.043 578.846,312.263 583,312C587.482,312.114 591.764,313.898 595,317L619,337C634.426,350.307 653.694,358.365 674,360L705,363C713.582,363.492 720.508,370.418 721,379L724,416C725.281,432.961 731.939,449.079 743,462L767,490C772.515,496.641 772.515,506.359 767,513L747,535C732.667,551.543 723.916,572.196 722,594L719,624C718.04,632.198 711.242,638.57 703,639L667,642C649.722,643.21 633.264,649.863 620,661L592,684C585.359,689.515 575.641,689.515 569,684L545,663C529.612,649.633 510.323,641.566 490,640L458,637C450.453,636.219 444.299,630.476 443,623L420,645C427.843,657.6 441.209,665.768 456,667L487,669C501.048,670.138 514.369,675.747 525,685L550,706C567.251,721.212 593.26,721.639 611,707L638,683C646.813,675.841 657.664,671.641 669,671L705,668C727.873,666.663 746.602,648.786 749,626L751,596C752.485,580.471 758.779,565.785 769,554L788,532C803.212,514.749 803.639,488.74 789,471ZM318,327L318,571C318.163,571.6 318.246,572.218 318.246,572.84C318.246,576.68 315.086,579.84 311.246,579.84C308.611,579.84 306.19,578.352 305,576L235,505C230.799,501.084 224.201,501.084 220,505L204,521C201.799,523.077 200.55,525.973 200.55,529C200.55,532.027 201.799,534.923 204,537L333,665C337.201,668.916 343.799,668.916 348,665L477,537C479.201,534.923 480.45,532.027 480.45,529C480.45,525.973 479.201,523.077 477,521L461,506C456.799,502.084 450.201,502.084 446,506L376,576C374.482,577.725 372.292,578.714 369.995,578.714C365.714,578.714 362.153,575.278 362,571L363,327C363.023,321.325 358.652,316.516 353,316L330,316C329.667,315.97 329.334,315.954 329,315.954C322.965,315.954 318,320.92 318,326.954C318,326.97 318,326.985 318,327ZM516,427C528.069,427 538,436.931 538,449C538,461.069 528.069,471 516,471C503.931,471 494,461.069 494,449C494,436.931 503.931,427 516,427M516,397C487.474,397 464,420.474 464,449C464,477.526 487.474,501 516,501C544.526,501 568,477.526 568,449C568,420.474 544.526,397 516,397Z" style="fill:white;fill-rule:nonzero;"/>
            </g>
        </g>
    </g>
</svg>
