<?xml version="1.0" encoding="UTF-8" standalone="no"?>
<!DOCTYPE svg PUBLIC "-//W3C//DTD SVG 1.1//EN" "http://www.w3.org/Graphics/SVG/1.1/DTD/svg11.dtd">
<svg width="100%" height="100%" viewBox="0 0 100 100" version="1.1" xmlns="http://www.w3.org/2000/svg" xmlns:xlink="http://www.w3.org/1999/xlink" xml:space="preserve" xmlns:serif="http://www.serif.com/" style="fill-rule:evenodd;clip-rule:evenodd;stroke-linejoin:round;stroke-miterlimit:2;">
    <g id="invoice" transform="matrix(0.24,0,0,0.24,50,50)">
        <g transform="matrix(1,0,0,1,-208.333333,-208.333333)">
            <g transform="matrix(0.416667,0,0,0.416667,0,0)">
                <path d="M644,321L526,204C523.799,201.325 520.46,199.841 517,200C516.652,199.97 516.303,199.954 515.954,199.954C509.371,199.954 503.954,205.371 503.954,211.954C503.954,212.303 503.97,212.652 504,213L504,307C504,326.749 520.251,343 540,343L635,343C635.014,343 635.028,343 635.042,343C641.625,343 647.042,337.583 647.042,331C647.042,330.666 647.028,330.333 647,330C647.411,326.703 646.307,323.391 644,321ZM629,396L505,396C475.751,396.005 451.542,372.244 451,343L451,218C451,208.125 442.875,200 433,200L255,200C225.376,200 201,224.376 201,254L201,682C201.542,711.244 225.751,735.005 255,735L392,735L392,597C392.534,558.804 423.804,527.534 462,527L647,527L647,414C647,404.125 638.875,396 629,396ZM406,319L373,351L373,354L380,398C380.026,398.185 380.039,398.372 380.039,398.559C380.039,400.753 378.234,402.559 376.039,402.559C375.322,402.559 374.617,402.366 374,402L335,381C333.867,379.986 332.133,379.986 331,381L292,402C291.383,402.366 290.678,402.559 289.961,402.559C287.766,402.559 285.961,400.753 285.961,398.559C285.961,398.372 285.974,398.185 286,398L294,354C294,352.918 293.649,351.865 293,351L261,319C260,318 261,314 264,313L308,307L311,305L331,265C331.704,263.728 333.047,262.936 334.5,262.936C335.953,262.936 337.296,263.728 338,265L358,305L361,307L404,313C407,314 409,318 406,319ZM764,562L463,562C443.8,562 428,577.8 428,597L428,765C428,784.2 443.8,800 463,800L764,800C783.2,800 799,784.2 799,765L799,597C799,577.8 783.2,562 764,562ZM503,765C503.009,764.663 503.013,764.325 503.013,763.988C503.013,742.417 485.564,724.532 464,724L463,724L463,638C463.333,638.008 463.667,638.013 464,638.013C485.943,638.013 504,619.956 504,598.013C504,598.008 504,597 504,597L723,597C722.992,597.333 722.987,597.667 722.987,598C722.987,619.943 741.044,638 762.987,638C762.992,638 762.996,638 763,638L765,638L765,724C764.663,723.992 764.325,723.988 763.988,723.988C741.869,723.988 723.533,741.887 723,764L723,766L503,765Z" style="fill:white;fill-rule:nonzero;"/>
            </g>
            <g transform="matrix(0.416667,0,0,0.416667,0,0)">
                <circle cx="613" cy="678" r="58" style="fill:white;"/>
            </g>
        </g>
    </g>
</svg>
