<?xml version="1.0" encoding="UTF-8" standalone="no"?>
<!DOCTYPE svg PUBLIC "-//W3C//DTD SVG 1.1//EN" "http://www.w3.org/Graphics/SVG/1.1/DTD/svg11.dtd">
<svg width="100%" height="100%" viewBox="0 0 100 100" version="1.1" xmlns="http://www.w3.org/2000/svg" xmlns:xlink="http://www.w3.org/1999/xlink" xml:space="preserve" xmlns:serif="http://www.serif.com/" style="fill-rule:evenodd;clip-rule:evenodd;stroke-linejoin:round;stroke-miterlimit:2;">
    <g id="application" transform="matrix(0.225455,0,0,0.225455,50,50)">
        <g transform="matrix(1,0,0,1,-208.333333,-208.333333)">
            <g transform="matrix(0.416667,0,0,0.416667,0,0)">
                <path d="M743,415L595,415C560,415 532,387 532,352L532,204C532,192 522,183 511,183L299,183C264,183 236,211 236,246L236,754C236,789 264,817 299,817L525,817C498,782 481,738 481,690L444,690C432,690 423,681 423,669L423,648C423,637 432,627 444,627L491,627C499,604 510,582 525,564L444,564C432,564 423,554 423,543L423,521C423,510 432,500 444,500L609,500C658.657,479.722 714.343,479.722 764,500L764,437C764,425 755,416 743,416L743,415ZM337,691C319,691 304,676 304,658C304,640 319,626 337,626C355,626 370,641 370,659C370,677 355,691 337,691ZM304,532C304,550 319,564 337,564C355,564 370,551 370,532C370,514 355,499 337,499C319,499 304,514 304,532ZM389,396L343,421C339,423 335,420 336,416L345,365L344,360L305,324C304,321 307,317 310,316L361,309L365,307L388,259C390,256 394,256 396,259L420,307L423,309L475,316C478,317 480,321 477,324L439,361L438,365L446,416C447,420 443,423 440,421L393,396L389,396ZM749,352L637,352C614,352 595,333 595,310L595,198C595,189 601,183 610,183C614,183 617,184 620,187L760,327C763,330 764,333 764,337C764,346 758,352 749,352ZM836,690C836,772.013 768.513,839.5 686.5,839.5C604.487,839.5 537,772.013 537,690C537,607.987 604.487,540.5 686.5,540.5C768.513,540.5 836,607.987 836,690ZM708,608L707,607C704,604 699,604 697,608L685,619L685,620C682,623 682,628 685,631L714,663L716,667C716,670 714,673 711,673L601,673C597,673 594,677 593,681L593,698C594,703 597,707 601,707L711,708L714,709C716,711 717,715 715,717L686,749L685,749C683,753 683,758 686,761L697,773C700,777 705,777 707,773L777,696L778,696C780,693 780,687 777,684L708,608Z" style="fill:white;"/>
            </g>
        </g>
    </g>
</svg>
