<?xml version="1.0" encoding="UTF-8" standalone="no"?>
<!DOCTYPE svg PUBLIC "-//W3C//DTD SVG 1.1//EN" "http://www.w3.org/Graphics/SVG/1.1/DTD/svg11.dtd">
<svg width="100%" height="100%" viewBox="0 0 100 100" version="1.1" xmlns="http://www.w3.org/2000/svg" xmlns:xlink="http://www.w3.org/1999/xlink" xml:space="preserve" xmlns:serif="http://www.serif.com/" style="fill-rule:evenodd;clip-rule:evenodd;stroke-linejoin:round;stroke-miterlimit:2;">
    <g id="invoice" transform="matrix(0.24,0,0,0.24,50,50)">
        <g transform="matrix(1,0,0,1,-208.333333,-208.333333)">
            <g transform="matrix(0.416667,0,0,0.416667,0,0)">
                <path d="M630,360L736,360C744,360 750,354 750,346C750,342 749,339 746,336L614,204C611,201 608,200 604,200C596,200 590,206 590,214L590,320C590,342 608,360 630,360ZM730,420L590,420C557,420 530,393 530,360L530,220C530,209 521,200 510,200L310,200C277,200 250,227 250,260L250,740C250,773 277,800 310,800L690,800C723,800 750,773 750,740L750,440C750,429 741,420 730,420ZM346,681C329,681 315,667 315,650C315,633 329,619 346,619C363,619 377,633 377,650C377,667 363,681 346,681ZM346,561C329,561 315,547 315,530C315,513 329,499 346,499C363,499 377,513 377,530C377,548 363,561 346,561ZM395,402L351,425C348,427 344,424 345,421L353,372L352,368L316,333C315,331 317,327 320,326L369,319L372,317L394,272C396,269 400,269 402,272L424,317L427,319L476,326C479,327 481,331 478,333L442,368L441,372L449,421C450,424 446,427 443,425L399,402L395,402ZM670,660C670,671 661,680 650,680L447,680C436,680 427,671 427,660L427,640C427,629 436,620 447,620L650,620C661,620 670,629 670,640L670,660ZM670,540C670,551 661,560 650,560L447,560C436,560 427,551 427,540L427,520C427,509 436,500 447,500L650,500C661,500 670,509 670,520L670,540Z" style="fill:white;fill-rule:nonzero;"/>
            </g>
        </g>
    </g>
</svg>
