<?xml version="1.0" encoding="UTF-8" standalone="no"?>
<!DOCTYPE svg PUBLIC "-//W3C//DTD SVG 1.1//EN" "http://www.w3.org/Graphics/SVG/1.1/DTD/svg11.dtd">
<svg width="100%" height="100%" viewBox="0 0 100 100" version="1.1" xmlns="http://www.w3.org/2000/svg" xmlns:xlink="http://www.w3.org/1999/xlink" xml:space="preserve" xmlns:serif="http://www.serif.com/" style="fill-rule:evenodd;clip-rule:evenodd;stroke-linejoin:round;stroke-miterlimit:2;">
    <g id="payment_application" transform="matrix(0.24,0,0,0.24,50,51.154308)">
        <g transform="matrix(1,0,0,1,-208.333333,-208.333333)">
            <g transform="matrix(0.416667,0,0,0.416667,0,0)">
                <path d="M309,656L228,741C225,744 220,742 220,738L220,698C220,694 216,689 212,689L197,689C193,689 189,694 189,698L189,793C189,798 191,800 196,800L291,800C295,800 299,798 299,793L299,778C299,774 296,770 291,770L251,770C246,770 244,765 248,762L352,653L343,653C332,653 320,654 309,656ZM731,762C734,765 732,770 727,770L687,770C683,770 679,774 679,778L679,793C679,797 684,801 687,801L782,801C787,801 789,799 789,794L789,699C789,695 787,691 783,691L768,691C764,691 759,694 759,699L759,739C759,743 754,746 751,742L704,700L669,708L731,762ZM688,405C536,452 416,308 249,376C236,381 230,392 230,407L230,580C230,603 249,617 271,611C436,561 556,705 712,640C723,635 733,624 733,609L733,436C732,415 710,398 688,405ZM486,567C450.342,567 421,537.658 421,502C421,466.342 450.342,437 486,437C521.658,437 551,466.342 551,502C551,537.658 521.658,567 486,567ZM484,266C484,261 479,260 476,263L448,291C445,294 439,293 436,291L426,280C423,277 424,273 427,270L495,202C498,199 501,199 505,202L572,269C575,272 576,277 573,280L563,290C560,293 554,292 551,290L523,262C520,259 515,261 515,265L515,338L485,329L484,266Z" style="fill:white;fill-rule:nonzero;"/>
            </g>
        </g>
    </g>
</svg>
