<?xml version="1.0" encoding="UTF-8" standalone="no"?>
<!DOCTYPE svg PUBLIC "-//W3C//DTD SVG 1.1//EN" "http://www.w3.org/Graphics/SVG/1.1/DTD/svg11.dtd">
<svg width="100%" height="100%" viewBox="0 0 100 100" version="1.1" xmlns="http://www.w3.org/2000/svg" xmlns:xlink="http://www.w3.org/1999/xlink" xml:space="preserve" xmlns:serif="http://www.serif.com/" style="fill-rule:evenodd;clip-rule:evenodd;stroke-linejoin:round;stroke-miterlimit:2;">
    <g id="payment" transform="matrix(0.292752,0,0,0.292752,49.779886,50)">
        <g transform="matrix(1,0,0,1,-108.333333,-108.333333)">
            <g transform="matrix(0.416667,0,0,0.416667,0,0)">
                <path d="M205,91C207,97 213,100 219,100L300,100C306,100 312,97 314,91L346,32C348,26 344,20 338,20L182,20C176,20 172,26 175,31L205,91ZM307,147L213,147C134,147 70,212 70,292L70,452C70,478 91,500 118,500L402,500C428,500 450,478 450,452L450,292C450,212 385,147 307,147ZM284,417L284,444C284,449 279,452 274,452L242,452C237,452 236,449 236,444L236,418C212,413 192,403 187,398C181,392 179,387 184,380L194,364C196,360 201,358 206,358L214,360L215,360C226.831,368.177 240.652,373.014 255,374C266,374 275,368 275,362C275,357 272,349 242,339C215,329 182,313 182,276C182,254 196,229 236,221L236,197C236,192 238,189 242,189L274,189C279,189 284,192 284,197L284,220C300,224 317,232 323,236C326,238 328,242 329,246C330,250 328,254 326,256L312,270C309,274 303,277 299,277L292,275C280.578,267.476 267.574,262.684 254,261C241,261 235,267 235,271C235,277 238,283 265,293C298,304 335,322 335,360C336,386 315,409 284,417Z" style="fill:white;fill-rule:nonzero;"/>
            </g>
        </g>
    </g>
</svg>
