<?xml version="1.0" encoding="UTF-8" standalone="no"?>
<!DOCTYPE svg PUBLIC "-//W3C//DTD SVG 1.1//EN" "http://www.w3.org/Graphics/SVG/1.1/DTD/svg11.dtd">
<svg width="100%" height="100%" viewBox="0 0 100 100" version="1.1" xmlns="http://www.w3.org/2000/svg" xmlns:xlink="http://www.w3.org/1999/xlink" xml:space="preserve" xmlns:serif="http://www.serif.com/" style="fill-rule:evenodd;clip-rule:evenodd;stroke-linejoin:round;stroke-miterlimit:2;">
    <g id="subscription" transform="matrix(0.297547,0,0,0.297547,50,50)">
        <g transform="matrix(1,0,0,1,-108.333333,-108.333333)">
            <g transform="matrix(4.166667,0,0,4.166667,0,0)">
                <path d="M46.5,20L5.5,20C4.7,20 4,20.7 4,21.5L4,46C4,48.194 5.806,50 8,50L44,50C46.194,50 48,48.194 48,46L48,21.5C48,20.7 47.3,20 46.5,20ZM19,42C19,42.6 18.6,43 18,43L14,43C13.4,43 13,42.6 13,42L13,38C13,37.4 13.4,37 14,37L18,37C18.6,37 19,37.4 19,38L19,42ZM19,32C19,32.6 18.6,33 18,33L14,33C13.4,33 13,32.6 13,32L13,28C13,27.4 13.4,27 14,27L18,27C18.6,27 19,27.4 19,28L19,32ZM29,42C29,42.6 28.6,43 28,43L24,43C23.4,43 23,42.6 23,42L23,38C23,37.4 23.4,37 24,37L28,37C28.6,37 29,37.4 29,38L29,42ZM29,32C29,32.6 28.6,33 28,33L24,33C23.4,33 23,32.6 23,32L23,28C23,27.4 23.4,27 24,27L28,27C28.6,27 29,27.4 29,28L29,32ZM39,42C39,42.6 38.6,43 38,43L34,43C33.4,43 33,42.6 33,42L33,38C33,37.4 33.4,37 34,37L38,37C38.6,37 39,37.4 39,38L39,42ZM39,32C39,32.6 38.6,33 38,33L34,33C33.4,33 33,32.6 33,32L33,28C33,27.4 33.4,27 34,27L38,27C38.6,27 39,27.4 39,28L39,32ZM44,7L39,7L39,5C39,3.354 37.646,2 36,2C34.354,2 33,3.354 33,5L33,7L19,7L19,5C19,3.354 17.646,2 16,2C14.354,2 13,3.354 13,5L13,7L8,7C5.806,7 4,8.806 4,11L4,13.5C4,14.3 4.7,15 5.5,15L46.5,15C47.3,15 48,14.3 48,13.5L48,11C48,8.806 46.194,7 44,7Z" style="fill:white;fill-rule:nonzero;"/>
            </g>
        </g>
    </g>
</svg>
